<svg width="24" height="24" viewBox="0 0 24 24" fill="none" xmlns="http://www.w3.org/2000/svg">
<g clip-path="url(#clip0_411_332)">
<path d="M4.87812 18.394L0.959122 14.475C0.322746 13.8082 -0.0323105 12.9218 -0.0323105 12C-0.0323105 11.0782 0.322746 10.1919 0.959122 9.52501L4.87812 5.60601C5.15938 5.32461 5.54091 5.16648 5.93877 5.16638C6.33663 5.16629 6.71823 5.32425 6.99962 5.60551C7.28102 5.88677 7.43916 6.2683 7.43925 6.66616C7.43934 7.06401 7.28138 7.44562 7.00012 7.72701L4.22012 10.508L22.4701 10.531C22.8679 10.531 23.2495 10.689 23.5308 10.9704C23.8121 11.2517 23.9701 11.6332 23.9701 12.031C23.9701 12.4288 23.8121 12.8104 23.5308 13.0917C23.2495 13.373 22.8679 13.531 22.4701 13.531L4.23912 13.508L7.00012 16.273C7.27336 16.5559 7.42455 16.9348 7.42113 17.3281C7.41772 17.7214 7.25996 18.0976 6.98185 18.3757C6.70374 18.6539 6.32752 18.8116 5.93422 18.815C5.54093 18.8184 5.16203 18.6673 4.87912 18.394H4.87812Z" fill="black"/>
</g>
<defs>
<clipPath id="clip0_411_332">
<rect width="24" height="24" fill="white" transform="matrix(-1 0 0 1 24 0)"/>
</clipPath>
</defs>
</svg>
