<svg width="24" height="24" viewBox="0 0 24 24" fill="none" xmlns="http://www.w3.org/2000/svg">
<path fill-rule="evenodd" clip-rule="evenodd" d="M5.00004 4.66667V3.5C5.00004 1.56701 6.56705 0 8.50004 0H15.5C17.4331 0 19 1.56701 19 3.5V4.66667H21.3334C22.6221 4.66667 23.6667 5.71134 23.6667 7V21C23.6667 22.2887 22.6221 23.3333 21.3334 23.3333H2.66671C1.37804 23.3333 0.333374 22.2887 0.333374 21V7C0.333374 5.71134 1.37804 4.66667 2.66671 4.66667H5.00004ZM7.33337 3.5C7.33337 2.85567 7.85571 2.33333 8.50004 2.33333H15.5C16.1444 2.33333 16.6667 2.85567 16.6667 3.5V4.66667H7.33337V3.5ZM13.1667 9.33333V12.8333H16.6667V15.1667H13.1667V18.6667H10.8334V15.1667H7.33337V12.8333H10.8334V9.33333H13.1667Z" fill="#D61B23"/>
</svg>
