<svg width="28" height="28" viewBox="0 0 28 28" fill="none" xmlns="http://www.w3.org/2000/svg">
<path d="M14 5.64439C12.6106 4.34749 11.537 3.56482 11.537 3.56482C11.537 3.56482 2.91667 9.84943 2.91667 16.3107C2.91667 22.7719 7.8426 24.5 11.537 24.5C14.5107 24.5 18.2823 23.3804 19.6407 19.5741M10.3056 20.1898C8.72223 20.1898 6.61112 19.4102 6.61112 16.4954M25.0833 11.6781C25.0833 15.4788 22.2685 16.4954 20.1574 16.4954C18.0463 16.4954 15.2315 15.4788 15.2315 11.6781C15.2315 10.5937 15.6325 9.51783 16.2056 8.53382C17.6413 6.06886 20.1574 4.18056 20.1574 4.18056C20.1574 4.18056 25.0833 7.87739 25.0833 11.6781Z" stroke="white" stroke-width="1.5" stroke-linecap="round" stroke-linejoin="round"/>
</svg>
