<svg width="50" height="50" viewBox="0 0 50 50" fill="none" xmlns="http://www.w3.org/2000/svg">
<g clip-path="url(#clip0_411_470)">
<path d="M36.4584 50.0002C19.4813 50.4793 -10.5771 20.3856 3.88128 4.03766C3.93336 3.98766 6.1542 2.05016 6.1542 2.05016C7.52904 0.721073 9.37096 -0.0147456 11.2831 0.00123141C13.1953 0.0172084 15.0247 0.783702 16.3771 2.13557L20.8625 6.96683C22.1825 8.34689 22.9125 10.1872 22.8973 12.0969C22.8821 14.0065 22.123 15.835 20.7813 17.1939L19.9709 18.0147C22.3797 23.3457 26.6404 27.622 31.9625 30.0502L32.8167 29.2168C34.205 27.8932 36.0495 27.1547 37.9677 27.1547C39.8859 27.1547 41.7305 27.8932 43.1188 29.2168L47.7813 33.5418C49.1644 34.889 49.9585 36.7286 49.9901 38.6591C50.0217 40.5896 49.2883 42.4543 47.95 43.846C47.95 43.846 46.0125 46.0689 45.9625 46.121C44.7132 47.3635 43.23 48.3461 41.5987 49.0119C39.9674 49.6777 38.2203 50.0136 36.4584 50.0002ZM8.2292 8.54183C-1.8958 21.0772 30.5063 51.6106 41.4688 41.771C41.4688 41.771 43.3938 39.5647 43.4459 39.5127C43.5469 39.4187 43.6276 39.3049 43.6827 39.1783C43.7378 39.0518 43.7663 38.9153 43.7663 38.7772C43.7663 38.6392 43.7378 38.5027 43.6827 38.3762C43.6276 38.2496 43.5469 38.1358 43.4459 38.0418L38.7834 33.721C38.1584 33.2002 37.8084 33.1939 37.225 33.6377L34.8604 35.9647C34.4335 36.3847 33.895 36.6732 33.3088 36.7958C32.7227 36.9184 32.1136 36.87 31.5542 36.6564C27.3974 35.1103 23.6216 32.6885 20.4829 29.5551C17.3441 26.4218 14.9158 22.6501 13.3625 18.496C13.1358 17.9319 13.0785 17.314 13.1976 16.7179C13.3168 16.1217 13.6072 15.5733 14.0334 15.1397L16.3438 12.7918C16.4491 12.699 16.5337 12.5851 16.5923 12.4576C16.6509 12.33 16.6821 12.1916 16.6838 12.0512C16.6856 11.9108 16.6579 11.7717 16.6026 11.6427C16.5472 11.5137 16.4655 11.3977 16.3625 11.3022L11.875 6.47099C11.6738 6.31045 11.4202 6.23013 11.1632 6.24552C10.9062 6.26091 10.664 6.37092 10.4834 6.55433C10.4354 6.60641 8.2292 8.54183 8.2292 8.54183ZM49.2709 22.7772C50.1551 19.7191 50.2029 16.4798 49.4094 13.3968C48.6158 10.3139 47.0098 7.50028 44.7589 5.24916C42.508 2.99804 39.6945 1.39184 36.6117 0.597969C33.5289 -0.1959 30.2895 -0.148381 27.2313 0.735575C26.838 0.852943 26.4717 1.04663 26.1533 1.30556C25.8348 1.5645 25.5705 1.88362 25.3754 2.24471C25.1803 2.60579 25.0582 3.00177 25.0162 3.41003C24.9741 3.81829 25.0129 4.23083 25.1302 4.62412C25.2476 5.0174 25.4413 5.38371 25.7002 5.70214C25.9592 6.02057 26.2783 6.28488 26.6394 6.47998C27.0005 6.67508 27.3964 6.79715 27.8047 6.83922C28.2129 6.88128 28.6255 6.84253 29.0188 6.72516C30.9964 6.15977 33.0893 6.13366 35.0805 6.64953C37.0716 7.16539 38.8885 8.20446 40.3428 9.659C41.7972 11.1135 42.836 12.9306 43.3515 14.9218C43.8671 16.913 43.8407 19.0059 43.275 20.9835C43.1578 21.3769 43.1193 21.7896 43.1616 22.1979C43.204 22.6062 43.3263 23.0022 43.5217 23.3632C43.7171 23.7242 43.9817 24.0432 44.3005 24.3019C44.6192 24.5606 44.9857 24.754 45.3792 24.871C45.6694 24.9566 45.9704 25.0001 46.2729 25.0002C46.9455 24.9994 47.6 24.7817 48.1389 24.3793C48.6779 23.977 49.0727 23.4115 49.2646 22.7668L49.2709 22.7772ZM37.6334 23.0543C37.9238 22.7641 38.1541 22.4195 38.3113 22.0403C38.4685 21.661 38.5494 21.2545 38.5494 20.8439C38.5494 20.4334 38.4685 20.0268 38.3113 19.6476C38.1541 19.2683 37.9238 18.9237 37.6334 18.6335L35.4167 16.4147V13.5418C35.4167 12.713 35.0875 11.9182 34.5014 11.3321C33.9153 10.7461 33.1205 10.4168 32.2917 10.4168C31.4629 10.4168 30.668 10.7461 30.082 11.3321C29.4959 11.9182 29.1667 12.713 29.1667 13.5418V17.7085C29.1665 18.1189 29.2472 18.5254 29.4041 18.9047C29.561 19.2839 29.7911 19.6286 30.0813 19.9189L33.2063 23.0439C33.4965 23.3343 33.8411 23.5647 34.2203 23.7218C34.5996 23.879 35.0061 23.9599 35.4167 23.9599C35.8272 23.9599 36.2338 23.879 36.613 23.7218C36.9923 23.5647 37.3369 23.3343 37.6271 23.0439L37.6334 23.0543Z" fill="white"/>
</g>
<defs>
<clipPath id="clip0_411_470">
<rect width="50" height="50" fill="white"/>
</clipPath>
</defs>
</svg>
