<svg width="18" height="18" viewBox="0 0 18 18" fill="none" xmlns="http://www.w3.org/2000/svg">
<g clip-path="url(#clip0_473_239)">
<path d="M17.6709 16.084L14.187 12.5987C16.7938 9.11512 16.083 4.17788 12.5995 1.57109C9.11589 -1.03571 4.17864 -0.324919 1.57185 3.15866C-1.03494 6.64224 -0.324156 11.5795 3.15942 14.1863C5.95772 16.2803 9.80113 16.2803 12.5995 14.1863L16.0848 17.6716C16.5228 18.1096 17.2329 18.1096 17.6709 17.6716C18.1089 17.2336 18.1089 16.5235 17.6709 16.0855L17.6709 16.084ZM7.90849 13.5136C4.81245 13.5136 2.30264 11.0038 2.30264 7.90773C2.30264 4.81169 4.81245 2.30188 7.90849 2.30188C11.0045 2.30188 13.5143 4.81169 13.5143 7.90773C13.511 11.0024 11.0032 13.5103 7.90849 13.5136Z" fill="#162550"/>
</g>
<defs>
<clipPath id="clip0_473_239">
<rect width="18" height="18" fill="white"/>
</clipPath>
</defs>
</svg>
