<svg width="14" height="14" viewBox="0 0 14 14" fill="none" xmlns="http://www.w3.org/2000/svg">
<g clip-path="url(#clip0_411_417)">
<path d="M11.1544 10.7299L13.4405 8.44377C13.8117 8.05477 14.0188 7.53772 14.0188 7.00002C14.0188 6.46231 13.8117 5.94527 13.4405 5.55627L11.1544 3.27018C10.9904 3.10604 10.7678 3.01379 10.5357 3.01373C10.3036 3.01368 10.081 3.10582 9.91688 3.26989C9.75273 3.43396 9.66048 3.65652 9.66043 3.8886C9.66037 4.12069 9.75252 4.34329 9.91659 4.50743L11.5383 6.12968L0.89242 6.1431C0.660355 6.1431 0.437795 6.23529 0.273701 6.39938C0.109607 6.56348 0.0174196 6.78604 0.0174196 7.0181C0.0174196 7.25017 0.109607 7.47273 0.273701 7.63682C0.437795 7.80091 0.660355 7.8931 0.89242 7.8931L11.5272 7.87968L9.91659 9.4926C9.7572 9.65763 9.669 9.87866 9.671 10.1081C9.67299 10.3375 9.76501 10.557 9.92725 10.7192C10.0895 10.8814 10.3089 10.9734 10.5384 10.9754C10.7678 10.9774 10.9888 10.8892 11.1538 10.7299H11.1544Z" fill="#D61B23"/>
</g>
<defs>
<clipPath id="clip0_411_417">
<rect width="14" height="14" fill="white"/>
</clipPath>
</defs>
</svg>
